<svg width="191" height="58" viewBox="0 0 191 58" fill="none" xmlns="http://www.w3.org/2000/svg">
<path d="M64.28 43.32H67.16V44.5C67.3867 43.58 68.42 43.12 70.26 43.12C71.5 43.12 72.3667 43.3467 72.86 43.8C73.3667 44.24 73.62 44.94 73.62 45.9V53H70.7V46.28C70.7 45.9067 70.66 45.6267 70.58 45.44C70.5133 45.2533 70.3667 45.12 70.14 45.04C69.9267 44.96 69.5933 44.92 69.14 44.92C68.5667 44.92 68.1467 44.96 67.88 45.04C67.6133 45.1067 67.4333 45.2333 67.34 45.42C67.2467 45.6067 67.2 45.8933 67.2 46.28V53H64.28V43.32ZM81.0345 53.2C77.6079 53.2 75.8945 52.1533 75.8945 50.06V46.58C75.8945 45.3667 76.2812 44.4867 77.0545 43.94C77.8412 43.3933 79.0479 43.12 80.6745 43.12C82.2079 43.12 83.3279 43.3867 84.0345 43.92C84.7545 44.44 85.1145 45.3267 85.1145 46.58V48.94H78.8345V49.82C78.8345 50.38 79.0345 50.78 79.4345 51.02C79.8345 51.26 80.5545 51.38 81.5945 51.38C82.5545 51.38 83.6345 51.24 84.8345 50.96V52.82C83.6479 53.0733 82.3812 53.2 81.0345 53.2ZM82.3345 47.28V45.88C82.3345 45.56 82.2012 45.32 81.9345 45.16C81.6812 45 81.2479 44.92 80.6345 44.92C79.9279 44.92 79.4545 45 79.2145 45.16C78.9612 45.3333 78.8345 45.5733 78.8345 45.88V47.28H82.3345ZM90.0864 53.2C89.1797 53.2 88.4997 53.12 88.0464 52.96C87.6064 52.7867 87.2931 52.4867 87.1064 52.06C86.9331 51.62 86.8464 50.9667 86.8464 50.1C86.8464 49.3267 86.9397 48.72 87.1264 48.28C87.3264 47.84 87.6397 47.5267 88.0664 47.34C88.5064 47.14 89.1064 47.04 89.8664 47.04H93.1464V46.38C93.1464 45.9667 93.0864 45.66 92.9664 45.46C92.8597 45.26 92.6531 45.12 92.3464 45.04C92.0531 44.96 91.6064 44.92 91.0064 44.92C90.1797 44.92 89.0464 45 87.6064 45.16V43.32C88.6597 43.1867 89.8931 43.12 91.3064 43.12C92.5464 43.12 93.4997 43.2133 94.1664 43.4C94.8464 43.5867 95.3331 43.9067 95.6264 44.36C95.9197 44.8133 96.0664 45.4733 96.0664 46.34V53H93.2064V52.12C92.9797 52.5067 92.6731 52.78 92.2864 52.94C91.8997 53.1133 91.1664 53.2 90.0864 53.2ZM91.2264 51.38C91.8131 51.38 92.2331 51.36 92.4864 51.32C92.6731 51.2933 92.7997 51.2533 92.8664 51.2C92.9464 51.1467 93.0131 51.06 93.0664 50.94C93.1197 50.8467 93.1464 50.7067 93.1464 50.52V48.64H91.1464C90.6931 48.64 90.3731 48.6733 90.1864 48.74C89.9997 48.7933 89.8731 48.9133 89.8064 49.1C89.7397 49.2733 89.7064 49.5867 89.7064 50.04C89.7064 50.48 89.7397 50.7867 89.8064 50.96C89.8731 51.1333 89.9997 51.2467 90.1864 51.3C90.3864 51.3533 90.7331 51.38 91.2264 51.38ZM98.6355 43.32H101.415V45.02C101.415 44.7133 101.542 44.4133 101.795 44.12C102.049 43.8267 102.369 43.5867 102.755 43.4C103.155 43.2133 103.549 43.12 103.935 43.12H104.975V45.54H103.975C103.149 45.54 102.535 45.6667 102.135 45.92C101.749 46.1733 101.555 46.5933 101.555 47.18V53H98.6355V43.32ZM111.485 53.2C110.258 53.2 109.285 53.0733 108.565 52.82C107.858 52.5667 107.351 52.18 107.045 51.66C106.738 51.1267 106.585 50.4267 106.585 49.56V39H109.505V44.28C109.678 43.84 109.998 43.54 110.465 43.38C110.931 43.2067 111.658 43.12 112.645 43.12C113.485 43.12 114.158 43.1867 114.665 43.32C115.185 43.4533 115.578 43.6667 115.845 43.96C116.098 44.2533 116.271 44.58 116.365 44.94C116.458 45.2867 116.505 45.7667 116.505 46.38V49.56C116.505 50.8667 116.111 51.8 115.325 52.36C114.538 52.92 113.258 53.2 111.485 53.2ZM111.525 51.38C112.098 51.38 112.531 51.34 112.825 51.26C113.118 51.18 113.318 51.04 113.425 50.84C113.531 50.64 113.585 50.34 113.585 49.94V46.36C113.585 45.92 113.538 45.6067 113.445 45.42C113.351 45.22 113.165 45.0867 112.885 45.02C112.605 44.9533 112.145 44.92 111.505 44.92C110.958 44.92 110.538 44.9667 110.245 45.06C109.965 45.1533 109.771 45.3 109.665 45.5C109.558 45.7 109.505 45.9867 109.505 46.36V49.94C109.505 50.34 109.551 50.64 109.645 50.84C109.751 51.04 109.945 51.18 110.225 51.26C110.518 51.34 110.951 51.38 111.525 51.38ZM121.532 52.92L117.672 43.32H120.852L123.032 50.16L125.012 43.32H128.032L122.732 57.16H119.772L121.532 52.92Z" fill="white"/>
<path d="M8.96 30.32C6.976 30.32 4.52267 30.128 1.6 29.744V25.936C5.22667 26.4907 7.70133 26.768 9.024 26.768C11.7973 26.768 13.184 26.0533 13.184 24.624V23.28C13.184 22.5973 12.9813 22.0747 12.576 21.712C12.192 21.3493 11.488 21.168 10.464 21.168H8.032C3.46667 21.168 1.184 19.3547 1.184 15.728V14.192C1.184 12.3787 1.94133 11.0453 3.456 10.192C4.97067 9.33867 7.37067 8.912 10.656 8.912C12.3627 8.912 14.528 9.05067 17.152 9.328V13.04C13.9307 12.656 11.712 12.464 10.496 12.464C8.81067 12.464 7.68 12.6027 7.104 12.88C6.48533 13.1787 6.176 13.648 6.176 14.288V15.76C6.176 16.848 7.09333 17.392 8.928 17.392H11.424C13.792 17.392 15.5093 17.8293 16.576 18.704C17.6427 19.5787 18.176 20.912 18.176 22.704V24.08C18.176 26.5547 17.2907 28.2293 15.52 29.104C14.6667 29.552 13.7173 29.8613 12.672 30.032C11.648 30.224 10.4107 30.32 8.96 30.32ZM21.4543 14.512H25.8703V16.048C26.1476 15.3653 26.6916 14.8853 27.5023 14.608C28.3129 14.3307 29.5183 14.192 31.1183 14.192C32.4623 14.192 33.5396 14.2987 34.3503 14.512C35.1823 14.7253 35.8116 15.0667 36.2383 15.536C36.6436 16.0053 36.9209 16.528 37.0703 17.104C37.2196 17.6587 37.2943 18.4267 37.2943 19.408V24.496C37.2943 26.032 37.0703 27.216 36.6223 28.048C36.1743 28.88 35.4809 29.4667 34.5423 29.808C33.6249 30.1493 32.3663 30.32 30.7663 30.32C29.2303 30.32 28.1209 30.192 27.4383 29.936C26.7556 29.68 26.3183 29.1787 26.1263 28.432V36.656H21.4543V14.512ZM29.3263 27.408C30.2436 27.408 30.9369 27.344 31.4063 27.216C31.8756 27.088 32.1956 26.864 32.3663 26.544C32.5369 26.224 32.6223 25.744 32.6223 25.104V19.376C32.6223 18.672 32.5476 18.1707 32.3983 17.872C32.2489 17.552 31.9503 17.3387 31.5023 17.232C31.0543 17.1253 30.3183 17.072 29.2943 17.072C28.4196 17.072 27.7476 17.1467 27.2783 17.296C26.8303 17.4453 26.5209 17.68 26.3503 18C26.2009 18.32 26.1263 18.7787 26.1263 19.376V25.104C26.1263 25.744 26.2009 26.224 26.3503 26.544C26.5209 26.864 26.8303 27.088 27.2783 27.216C27.7263 27.344 28.4089 27.408 29.3263 27.408ZM48.3783 30.32C47.4183 30.32 46.6289 30.288 46.0103 30.224C45.3916 30.16 44.7303 30.032 44.0263 29.84C43.2583 29.6267 42.6396 29.328 42.1703 28.944C41.7009 28.5387 41.3063 27.9733 40.9863 27.248C40.6663 26.544 40.5063 25.6907 40.5063 24.688V20.112C40.5063 19.088 40.6663 18.192 40.9863 17.424C41.3063 16.656 41.7223 16.0587 42.2343 15.632C42.6823 15.2693 43.2689 14.9707 43.9943 14.736C44.7409 14.48 45.4663 14.32 46.1703 14.256C46.9809 14.2133 47.7169 14.192 48.3783 14.192C49.3596 14.192 50.1383 14.224 50.7143 14.288C51.3116 14.3307 51.9623 14.4587 52.6663 14.672C53.4343 14.9067 54.0529 15.2267 54.5223 15.632C55.0129 16.0373 55.4289 16.6133 55.7703 17.36C56.0903 18.128 56.2503 19.0453 56.2503 20.112V24.688C56.2503 25.648 56.0903 26.4907 55.7703 27.216C55.4716 27.9413 55.0769 28.5067 54.5863 28.912C54.1596 29.2747 53.5729 29.5733 52.8263 29.808C52.1009 30.0213 51.3863 30.16 50.6823 30.224C50.0423 30.288 49.2743 30.32 48.3783 30.32ZM48.3783 27.408C49.2529 27.408 49.9143 27.344 50.3623 27.216C50.8103 27.0667 51.1196 26.8427 51.2903 26.544C51.4823 26.2453 51.5783 25.808 51.5783 25.232V19.376C51.5783 18.5227 51.3543 17.9253 50.9063 17.584C50.4583 17.2427 49.6156 17.072 48.3783 17.072C47.1409 17.072 46.2983 17.2427 45.8503 17.584C45.4023 17.9253 45.1783 18.5227 45.1783 19.376V25.232C45.1783 25.808 45.2636 26.2453 45.4343 26.544C45.6263 26.8427 45.9463 27.0667 46.3943 27.216C46.8423 27.344 47.5036 27.408 48.3783 27.408ZM59.8918 14.512H64.3398V17.232C64.3398 16.7413 64.5424 16.2613 64.9478 15.792C65.3531 15.3227 65.8651 14.9387 66.4838 14.64C67.1238 14.3413 67.7531 14.192 68.3718 14.192H70.0358V18.064H68.4358C67.1131 18.064 66.1318 18.2667 65.4918 18.672C64.8731 19.0773 64.5638 19.7493 64.5638 20.688V30H59.8918V14.512ZM80.3545 30.32C79.5652 30.32 78.9038 30.288 78.3705 30.224C77.8372 30.16 77.3038 30.032 76.7705 29.84C76.1732 29.648 75.6825 29.3813 75.2985 29.04C74.9358 28.6987 74.6372 28.2293 74.4025 27.632C74.1465 27.0133 74.0185 26.2987 74.0185 25.488V17.392H70.8825V14.512H74.0185V10.032H78.6905V14.512H82.9465V17.392H78.6905V24.688C78.6905 25.4347 78.7545 26 78.8825 26.384C79.0105 26.7467 79.2558 27.0133 79.6185 27.184C79.9812 27.3333 80.5358 27.408 81.2825 27.408C81.5812 27.408 82.1358 27.3547 82.9465 27.248V30.16C81.9438 30.2667 81.0798 30.32 80.3545 30.32ZM102.393 30.32C101.454 30.32 100.611 30.2773 99.8648 30.192C99.1394 30.1067 98.3394 29.9467 97.4648 29.712C96.4834 29.456 95.6728 29.1253 95.0328 28.72C94.3928 28.2933 93.8594 27.7067 93.4328 26.96C92.9848 26.2133 92.7608 25.328 92.7608 24.304V15.184C92.7608 11.0027 95.9714 8.912 102.393 8.912C104.035 8.912 106.233 9.14667 108.985 9.616V13.36C106.51 12.7627 104.334 12.464 102.457 12.464C101.667 12.464 101.049 12.4853 100.601 12.528C100.174 12.5707 99.7261 12.6773 99.2568 12.848C98.2541 13.1893 97.7528 13.9467 97.7528 15.12V23.952C97.7528 25.8293 99.4701 26.768 102.905 26.768C104.377 26.768 106.446 26.4587 109.113 25.84V29.616C106.83 30.0853 104.59 30.32 102.393 30.32ZM119.887 30.32C114.404 30.32 111.663 28.6453 111.663 25.296V19.728C111.663 17.7867 112.281 16.3787 113.519 15.504C114.777 14.6293 116.708 14.192 119.311 14.192C121.764 14.192 123.556 14.6187 124.687 15.472C125.839 16.304 126.415 17.7227 126.415 19.728V23.504H116.367V24.912C116.367 25.808 116.687 26.448 117.327 26.832C117.967 27.216 119.119 27.408 120.783 27.408C122.319 27.408 124.047 27.184 125.967 26.736V29.712C124.068 30.1173 122.041 30.32 119.887 30.32ZM121.967 20.848V18.608C121.967 18.096 121.753 17.712 121.327 17.456C120.921 17.2 120.228 17.072 119.247 17.072C118.116 17.072 117.359 17.2 116.975 17.456C116.569 17.7333 116.367 18.1173 116.367 18.608V20.848H121.967ZM129.986 14.512H134.594V16.4C134.956 14.928 136.61 14.192 139.554 14.192C141.538 14.192 142.924 14.5547 143.714 15.28C144.524 15.984 144.93 17.104 144.93 18.64V30H140.258V19.248C140.258 18.6507 140.194 18.2027 140.066 17.904C139.959 17.6053 139.724 17.392 139.362 17.264C139.02 17.136 138.487 17.072 137.762 17.072C136.844 17.072 136.172 17.136 135.746 17.264C135.319 17.3707 135.031 17.5733 134.882 17.872C134.732 18.1707 134.658 18.6293 134.658 19.248V30H129.986V14.512ZM156.761 30.32C155.971 30.32 155.31 30.288 154.777 30.224C154.243 30.16 153.71 30.032 153.177 29.84C152.579 29.648 152.089 29.3813 151.705 29.04C151.342 28.6987 151.043 28.2293 150.809 27.632C150.553 27.0133 150.425 26.2987 150.425 25.488V17.392H147.289V14.512H150.425V10.032H155.097V14.512H159.353V17.392H155.097V24.688C155.097 25.4347 155.161 26 155.289 26.384C155.417 26.7467 155.662 27.0133 156.025 27.184C156.387 27.3333 156.942 27.408 157.689 27.408C157.987 27.408 158.542 27.3547 159.353 27.248V30.16C158.35 30.2667 157.486 30.32 156.761 30.32ZM169.824 30.32C164.341 30.32 161.6 28.6453 161.6 25.296V19.728C161.6 17.7867 162.219 16.3787 163.456 15.504C164.715 14.6293 166.645 14.192 169.248 14.192C171.701 14.192 173.493 14.6187 174.624 15.472C175.776 16.304 176.352 17.7227 176.352 19.728V23.504H166.304V24.912C166.304 25.808 166.624 26.448 167.264 26.832C167.904 27.216 169.056 27.408 170.72 27.408C172.256 27.408 173.984 27.184 175.904 26.736V29.712C174.005 30.1173 171.979 30.32 169.824 30.32ZM171.904 20.848V18.608C171.904 18.096 171.691 17.712 171.264 17.456C170.859 17.2 170.165 17.072 169.184 17.072C168.053 17.072 167.296 17.2 166.912 17.456C166.507 17.7333 166.304 18.1173 166.304 18.608V20.848H171.904ZM179.923 14.512H184.371V17.232C184.371 16.7413 184.574 16.2613 184.979 15.792C185.384 15.3227 185.896 14.9387 186.515 14.64C187.155 14.3413 187.784 14.192 188.403 14.192H190.067V18.064H188.467C187.144 18.064 186.163 18.2667 185.523 18.672C184.904 19.0773 184.595 19.7493 184.595 20.688V30H179.923V14.512Z" fill="#52ABFE"/>
</svg>
